# xmcd
#
# Track frame offsets:
#	182
#	17707
#	48832
#
# Disc length: 1094 seconds
#
# Revision: 1
# Processed by: cddbd v1.5.2PL0 Copyright (c) Steve Scherf et al.
# Submitted via: EasyCDDAExtractor 10.2.0.1
#
DISCID=19044403
DTITLE=Intrance - Take on me CDM
DYEAR=1995
DGENRE=Dance
TTITLE0=Take on me (Single Version)
TTITLE1=Take on me (Extended Version)
TTITLE2=Take (Deep Club Edit)
EXTD=
EXTT0=
EXTT1=
EXTT2=
PLAYORDER=
